PathFileType	4	(X/Y/Z)	C:/Users/opensim2020/Desktop/walking_exp_matlab/subject06_walking16_straight_04.trc																																																																																																																																																							
DataRate	CameraRate	NumFrames	NumMarkers	Units	OrigDataRate	OrigDataStartFrame	OrigNumFrames																																																																																																																																																			
100	100	4	51	mm	100	3877	352																																																																																																																																																			
Frame#	Time	LFHD			RFHD			LBHD			RBHD			C7			T10			CLAV			STRN			RBAK			LSHO			LUPA			LELB			LFRM			LWRA			LWRB			LFIN			RSHO			RUPA			RELB			RFRM			RWRA			RWRB			RFIN			LASI			RASI			LPSI			RPSI			LTHI			LKNE			LTIB			LANK			LHEE			LTOE			RTHI			RKNE			RTIB			RANK			RHEE			RTOE			*39			*40			*41			*42			*43			*44			*45			*46			*47			*48			*49			*50		
		X1	Y1	Z1	X2	Y2	Z2	X3	Y3	Z3	X4	Y4	Z4	X5	Y5	Z5	X6	Y6	Z6	X7	Y7	Z7	X8	Y8	Z8	X9	Y9	Z9	X10	Y10	Z10	X11	Y11	Z11	X12	Y12	Z12	X13	Y13	Z13	X14	Y14	Z14	X15	Y15	Z15	X16	Y16	Z16	X17	Y17	Z17	X18	Y18	Z18	X19	Y19	Z19	X20	Y20	Z20	X21	Y21	Z21	X22	Y22	Z22	X23	Y23	Z23	X24	Y24	Z24	X25	Y25	Z25	X26	Y26	Z26	X27	Y27	Z27	X28	Y28	Z28	X29	Y29	Z29	X30	Y30	Z30	X31	Y31	Z31	X32	Y32	Z32	X33	Y33	Z33	X34	Y34	Z34	X35	Y35	Z35	X36	Y36	Z36	X37	Y37	Z37	X38	Y38	Z38	X39	Y39	Z39	X40	Y40	Z40	X41	Y41	Z41	X42	Y42	Z42	X43	Y43	Z43	X44	Y44	Z44	X45	Y45	Z45	X46	Y46	Z46	X47	Y47	Z47	X48	Y48	Z48	X49	Y49	Z49	X50	Y50	Z50	X51	Y51	Z51
																																																																																																																																																										
45	0.44	-977.25146	1677.51709	-1466.96008	-981.23279	1661.26672	-1336.27417	-1110.0658	1622.32019	-1473.82263	-1112.42761	1611.57776	-1345.50415	-1112.08301	1465.17969	-1418.6449	-1154.50378	1137.55627	-1412.79224	-1003.95563	1385.84302	-1419.13257	-970.00354	1208.69873	-1425.66748	-1186.92993	1298.07288	-1334.72754	-1060.51306	1416.23877	-1580.71997	-1066.96753	1212.25977	-1649.99768	-1069.39893	1100.4198	-1661.70715	-1038.52368	954.06042	-1687.5553	-968.31726	842.4566	-1650.36487	-1030.29199	834.04565	-1683.3717	-983.48309	756.24323	-1688.94348	-1042.21948	1419.47131	-1257.51086	-1074.56384	1220.76685	-1166.66614	-1059.34546	1100.6626	-1152.24878	-1018.96155	986.65985	-1140.84094	-930.09113	868.6745	-1182.55127	-979.89465	854.68237	-1138.87134	-923.08429	792.62323	-1142.03174	-976.54694	979.50977	-1527.13708	-977.24548	977.6098	-1306.77429	-1135.36951	1003.59283	-1501.56531	-1129.84607	1005.22644	-1332.73071	-981.72357	669.31586	-1592.34424	-935.82007	512.48322	-1565.20837	-1010.67969	271.58463	-1566.57593	-1040.36499	100.10394	-1533.97473	-1077.26807	86.56009	-1484.40588	-905.50867	53.3412	-1545.40454	-1044.00757	643.24463	-1263.52942	-1047.43591	517.88611	-1288.75342	-1109.29651	257.09976	-1296.9574	-1129.61206	72.66579	-1349.70459	-1168.98828	48.3008	-1395.54297	-976.44434	38.70104	-1352.93579	-1079.51563	1712.72192	-1409.48157	NaN	NaN	NaN	NaN	NaN	NaN	NaN	NaN	NaN	NaN	NaN	NaN	NaN	NaN	NaN	NaN	NaN	NaN	NaN	NaN	NaN	NaN	NaN	NaN	NaN	NaN	NaN	NaN	NaN	NaN	NaN	NaN	NaN
46	0.45	-971.48999	1677.01843	-1467.27612	-975.49054	1660.93494	-1336.57813	-1104.34131	1621.94421	-1474.06787	-1106.7594	1611.41443	-1345.87427	-1106.58508	1464.87549	-1418.69421	-1149.13171	1137.20386	-1412.47546	-998.43762	1385.46155	-1419.06567	-964.62427	1208.30347	-1425.24353	-1181.4646	1297.90039	-1334.37317	-1055.05078	1415.6814	-1580.70435	-1063.6825	1211.78967	-1650.05957	-1067.84399	1100.04639	-1661.8739	-1039.56067	953.13611	-1687.99036	-972.08618	839.88672	-1651.45862	-1034.18213	833.12292	-1684.80847	-989.45667	754.2843	-1690.42078	-1036.75305	1419.34998	-1257.48047	-1068.47729	1220.72083	-1166.50085	-1052.94751	1100.61877	-1152.08948	-1012.36761	986.74908	-1140.6676	-923.29547	869.03833	-1182.46863	-973.00275	854.88776	-1138.66309	-915.79016	793.12939	-1141.79211	-970.62219	979.38367	-1526.52722	-972.56793	977.26361	-1306.19604	-1129.66553	1003.22119	-1501.34009	-1124.61292	1004.75928	-1332.51697	-973.12061	670.10931	-1592.12268	-929.00421	512.62054	-1565.54224	-995.28668	268.9722	-1567.15662	-1019.15387	96.59868	-1534.45447	-1056.14246	81.75976	-1485.41602	-882.60822	54.14574	-1543.18823	-1039.90051	642.80164	-1263.40649	-1043.88013	517.54187	-1288.6571	-1107.55676	257.05005	-1297.12866	-1129.34167	72.74327	-1349.79614	-1168.84607	48.4296	-1395.56653	-976.23114	38.55621	-1352.9209	-1073.72534	1712.37927	-1409.83606	NaN	NaN	NaN	NaN	NaN	NaN	NaN	NaN	NaN	NaN	NaN	NaN	NaN	NaN	NaN	NaN	NaN	NaN	NaN	NaN	NaN	NaN	NaN	NaN	NaN	NaN	NaN	NaN	NaN	NaN	NaN	NaN	NaN
47	0.46	-965.70074	1676.474	-1467.6311	-969.76654	1660.58911	-1336.88098	-1098.58203	1621.53528	-1474.44299	-1101.08521	1611.16028	-1346.09143	-1100.9906	1464.51782	-1418.77319	-1143.70898	1136.80688	-1412.19373	-992.87811	1385.03259	-1419.05811	-959.19196	1207.85693	-1424.88293	-1175.995	1297.6864	-1334.11694	-1049.42224	1415.09241	-1580.75122	-1060.37598	1211.30859	-1650.15271	-1066.24377	1099.8158	-1662.18457	-1041.0332	952.44891	-1688.83716	-975.89551	837.51105	-1652.31702	-1037.86316	832.46686	-1686.20544	-994.98297	752.43091	-1691.64099	-1031.13574	1419.19983	-1257.48718	-1062.46436	1220.56946	-1166.35486	-1046.67957	1100.56079	-1151.89612	-1005.79596	986.75781	-1140.47815	-916.52905	869.27008	-1182.39819	-966.04016	854.99762	-1138.49902	-908.74292	793.47821	-1141.59741	-964.69617	979.16254	-1525.92871	-967.53125	976.79242	-1305.56177	-1123.88208	1002.80573	-1501.12378	-1119.34033	1004.29492	-1332.2594	-969.36798	669.06354	-1592.75354	-922.18811	512.47614	-1565.80151	-980.30725	266.74979	-1568.1814	-997.90906	93.50273	-1535.06335	-1035.71741	77.99027	-1486.68188	-859.81665	55.32296	-1540.87927	-1035.58496	642.34222	-1263.34412	-1040.18018	517.12677	-1288.65857	-1105.52026	256.92062	-1297.18506	-1128.98828	72.80927	-1349.91309	-1168.7019	48.67453	-1395.6438	-976.08887	38.29047	-1353.18372	-1067.91101	1712.03723	-1410.27783	NaN	NaN	NaN	NaN	NaN	NaN	NaN	NaN	NaN	NaN	NaN	NaN	NaN	NaN	NaN	NaN	NaN	NaN	NaN	NaN	NaN	NaN	NaN	NaN	NaN	NaN	NaN	NaN	NaN	NaN	NaN	NaN	NaN
48	0.47	-959.87427	1675.89001	-1468.08069	-964.02582	1660.23267	-1337.25354	-1092.88354	1621.09277	-1474.81689	-1095.37146	1610.90698	-1346.50977	-1095.41052	1464.13062	-1418.87256	-1138.17603	1136.38647	-1411.93652	-987.26221	1384.58887	-1419.10168	-953.79498	1207.41626	-1424.56104	-1170.44714	1297.43054	-1333.95715	-1043.9408	1414.53723	-1580.88257	-1057.10754	1210.89502	-1650.32336	-1064.63257	1099.64954	-1662.57935	-1042.27173	952.04889	-1689.74133	-979.18463	835.68274	-1653.04016	-1041.88611	832.59326	-1688.20471	-1000.24811	750.84076	-1692.78821	-1025.63342	1418.97864	-1257.57556	-1056.45813	1220.42285	-1166.25073	-1040.46021	1100.44238	-1151.68335	-999.29858	986.72192	-1140.30237	-909.79089	869.4671	-1182.36731	-959.13519	855.08661	-1138.31714	-901.34637	793.80981	-1141.29883	-958.64856	978.94635	-1525.37073	-961.03815	976.30872	-1304.7334	-1118.0293	1002.35376	-1500.93738	-1113.98242	1003.79053	-1332.06323	-963.21472	668.8175	-1593.03857	-915.59363	512.26715	-1566.09082	-964.67975	264.35059	-1568.30261	-976.81921	90.80859	-1535.49731	-1014.9704	74.30761	-1487.8053	-837.48315	56.92754	-1538.51855	-1031.24426	641.94543	-1263.24365	-1036.21533	516.65332	-1288.60889	-1103.13953	256.78107	-1297.21472	-1128.53943	72.90545	-1350.01685	-1168.52673	48.90862	-1395.67908	-975.60602	38.13502	-1352.97339	-1062.10803	1711.6731	-1410.79358	NaN	NaN	NaN	NaN	NaN	NaN	NaN	NaN	NaN	NaN	NaN	NaN	NaN	NaN	NaN	NaN	NaN	NaN	NaN	NaN	NaN	NaN	NaN	NaN	NaN	NaN	NaN	NaN	NaN	NaN	NaN	NaN	NaN
